<?xml version="1.0" standalone="no"?>
<!DOCTYPE svg PUBLIC "-//W3C//DTD SVG 20010904//EN"
 "http://www.w3.org/TR/2001/REC-SVG-20010904/DTD/svg10.dtd">
<svg version="1.0" xmlns="http://www.w3.org/2000/svg"
 width="372.000000pt" height="372.000000pt" viewBox="0 0 372.000000 372.000000"
 preserveAspectRatio="xMidYMid meet">
<metadata>
Created by potrace 1.14, written by Peter Selinger 2001-2017
</metadata>
<g transform="translate(0.000000,372.000000) scale(0.100000,-0.100000)"
fill="#000000" stroke="none">
<path d="M615 3552 c-11 -2 -26 -9 -34 -16 -12 -9 -13 -8 -7 4 4 9 1 8 -7 -2
-8 -10 -18 -18 -23 -18 -14 0 -55 -65 -58 -92 -1 -13 -4 -28 -7 -33 -6 -12 -3
-80 6 -145 4 -25 7 -53 8 -62 1 -10 4 -18 7 -18 3 0 12 -16 19 -36 16 -44 30
-62 101 -134 47 -48 140 -110 140 -94 0 2 9 0 20 -6 30 -16 72 -21 241 -27
l156 -5 1 138 c0 77 -1 146 -4 155 -4 13 -23 16 -117 16 -124 0 -207 9 -207
24 0 5 -6 9 -13 9 -13 0 -49 52 -55 80 -1 8 -2 29 -2 45 5 91 0 115 -32 154
-38 47 -90 72 -133 63z"/>
<path d="M1384 3540 c-32 -13 -82 -77 -89 -114 -4 -18 -8 -193 -9 -388 -1
-194 -5 -359 -9 -364 -3 -6 -4 -14 0 -18 4 -3 7 -70 8 -149 1 -78 5 -152 9
-164 4 -12 9 -32 11 -45 3 -12 9 -24 15 -26 5 -2 10 -11 10 -21 0 -25 94 -126
153 -165 96 -62 146 -71 407 -71 162 0 218 4 266 17 61 17 159 70 148 81 -3 3
4 8 15 12 12 3 21 13 21 21 0 8 5 12 10 9 6 -3 10 -2 10 3 0 5 8 18 18 30 9
11 25 29 34 40 9 11 14 23 11 26 -4 3 -1 6 5 6 6 0 18 13 26 29 9 16 28 33 43
38 15 5 136 9 268 8 179 0 250 3 280 13 22 7 48 14 57 15 10 1 18 5 18 9 0 4
9 8 19 8 11 0 21 4 23 9 2 5 10 11 18 13 8 2 28 15 45 30 16 16 34 28 38 28 5
0 5 5 2 10 -3 6 -2 10 4 10 16 0 79 109 91 158 15 65 18 141 7 181 -5 18 -10
42 -12 53 -14 72 -115 199 -182 229 -18 7 -33 17 -33 21 0 5 -8 8 -18 8 -10 0
-22 4 -28 9 -27 24 -117 34 -328 36 -238 1 -261 6 -298 55 -14 20 -19 47 -22
117 -3 92 -12 119 -55 164 -37 38 -122 54 -149 27 -7 -7 -12 -9 -12 -4 0 16
-69 -66 -78 -93 -13 -37 -7 -250 7 -264 6 -6 11 -19 11 -28 0 -24 65 -122 103
-157 49 -45 66 -56 114 -79 76 -35 78 -35 313 -39 264 -5 307 -12 338 -58 22
-32 29 -71 20 -109 -5 -20 -50 -59 -76 -65 -9 -2 -138 -4 -287 -6 l-270 -2
-65 -29 c-36 -16 -71 -34 -78 -40 -35 -27 -92 -89 -97 -106 -4 -10 -11 -19
-16 -19 -5 0 -9 -7 -9 -15 0 -8 -4 -15 -9 -15 -5 0 -12 -11 -15 -24 -3 -13
-22 -34 -41 -46 -29 -18 -52 -22 -140 -24 -64 -1 -107 2 -109 9 -3 6 -5 6 -5
0 -1 -9 -55 -11 -136 -4 -38 4 -91 58 -104 107 -7 23 -10 223 -9 522 l2 485
-32 47 c-42 61 -113 85 -178 58z"/>
<path d="M1689 3153 c-5 -169 -1 -261 11 -283 9 -17 15 -65 16 -143 0 -64 4
-120 7 -124 4 -3 3 -13 -2 -22 -8 -18 -7 -78 2 -87 3 -3 2 -16 -3 -29 -6 -15
-4 -27 3 -35 9 -10 9 -11 -3 -5 -12 6 -13 5 -3 -5 13 -15 273 -22 295 -9 8 5
11 50 10 151 0 79 -2 145 -3 148 -1 3 0 10 1 15 4 15 0 113 -6 168 -16 150
-158 297 -285 297 -38 0 -39 -1 -40 -37z"/>
<path d="M843 2632 c-13 -2 -23 -7 -23 -12 0 -4 -8 -7 -17 -6 -45 7 -213 -98
-213 -132 0 -6 -7 -12 -15 -16 -8 -3 -15 -10 -15 -16 0 -6 -6 -18 -14 -26 -18
-17 -51 -105 -61 -159 -9 -45 -10 -162 -2 -216 20 -148 119 -290 245 -350 89
-42 123 -47 310 -49 137 0 188 -4 209 -15 15 -8 27 -17 26 -20 -2 -3 -2 -6 -2
-7 2 -4 9 -119 9 -135 0 -20 0 -102 0 -115 0 -7 -1 -39 -3 -70 -1 -32 1 -58 6
-58 4 0 5 -5 1 -11 -10 -16 -11 -539 -1 -539 4 0 4 -8 0 -17 -10 -21 -9 -150
0 -160 8 -7 297 -7 304 1 9 8 8 1116 0 1116 -5 0 -5 5 -2 11 8 12 -35 139 -47
139 -5 0 -7 4 -3 9 3 6 -3 14 -12 20 -10 6 -14 11 -9 11 5 0 -7 15 -26 33 -54
50 -77 67 -92 67 -8 0 -16 5 -18 10 -2 6 -13 12 -26 13 -12 0 -22 4 -22 7 0 8
-12 9 -175 13 -78 2 -146 6 -152 10 -6 4 -14 4 -17 -1 -4 -7 -91 -9 -91 -2 0
1 -9 3 -20 5 -23 4 -85 71 -85 92 0 7 -4 13 -9 13 -15 0 -4 126 15 166 22 47
58 82 93 91 14 4 84 7 154 7 119 1 128 2 132 21 3 11 3 29 1 40 -2 11 1 26 7
33 5 6 6 12 1 12 -5 0 -9 44 -9 97 l0 98 -155 0 c-85 0 -165 -1 -177 -3z"/>
<path d="M3156 2157 c-28 -16 -48 -40 -75 -92 -20 -38 -46 -74 -58 -81 -13 -6
-21 -13 -18 -15 2 -3 -4 -5 -13 -6 -9 -1 -36 -3 -59 -5 -24 -2 -45 1 -47 7 -3
7 -7 7 -13 0 -5 -6 -78 -11 -188 -11 -253 -1 -309 -11 -385 -72 -59 -48 -64
-54 -108 -142 l-37 -75 -3 -198 -4 -197 154 2 153 3 1 73 c1 39 4 78 7 86 3 8
3 17 -1 20 -9 9 -3 117 9 146 18 47 33 50 290 51 235 1 282 6 344 34 64 28
124 60 121 62 -1 2 19 25 45 52 61 63 85 117 96 218 14 122 -106 201 -211 140z"/>
<path d="M1743 1912 c-16 -2 -23 -10 -23 -25 0 -74 2 -122 6 -129 3 -4 2 -8
-3 -8 -4 0 -7 -30 -5 -67 2 -77 2 -110 -1 -241 -1 -50 1 -92 4 -92 4 0 3 -15
0 -32 -4 -19 -2 -52 6 -77 7 -24 10 -47 7 -52 -3 -5 -1 -9 4 -9 6 0 16 -20 23
-45 7 -25 17 -45 21 -45 4 0 8 -4 8 -10 0 -14 27 -47 80 -98 67 -64 76 -72 83
-72 4 0 26 -9 50 -19 87 -40 121 -44 456 -42 292 1 328 3 366 20 44 20 88 59
79 72 -2 4 0 10 6 14 24 15 4 125 -28 155 -20 19 -59 42 -82 48 -8 3 -157 6
-330 8 -301 3 -316 4 -357 25 -24 12 -43 25 -43 29 0 4 -9 17 -20 30 -21 25
-22 25 -24 112 -2 32 -5 61 -9 64 -3 3 -4 11 -1 18 8 20 10 446 3 458 -7 11
-216 18 -276 10z"/>
<path d="M2275 750 l-120 -5 -2 -122 c-2 -121 -2 -123 20 -124 21 -1 139 -1
245 0 l52 1 0 124 0 124 -37 3 c-21 2 -92 2 -158 -1z"/>
<path d="M997 403 c-3 -3 -25 -5 -49 -5 -56 1 -107 -30 -110 -66 -4 -69 1 -91
26 -119 l26 -28 248 -2 c136 -1 252 -2 257 -3 6 -1 15 -1 20 0 27 7 1355 4
1355 -3 0 -5 4 -5 10 -2 5 3 25 8 45 10 50 7 82 31 95 71 13 39 1 91 -28 117
-15 14 -30 19 -92 31 -8 2 -29 0 -46 -4 -18 -4 -38 -4 -45 1 -7 4 -20 4 -28 0
-9 -5 -25 -5 -36 -1 -11 4 -31 4 -45 0 -14 -4 -37 -3 -53 1 -18 5 -25 4 -21
-3 4 -6 -1 -8 -12 -5 -32 10 -89 11 -102 3 -6 -4 -12 -3 -12 3 0 7 -8 7 -24 1
-13 -5 -27 -6 -30 -3 -9 9 -86 10 -86 1 0 -4 -11 -4 -23 1 -13 5 -30 6 -37 1
-7 -4 -25 -4 -40 0 -15 4 -33 4 -40 0 -7 -5 -24 -4 -37 1 -12 5 -23 5 -23 1 0
-9 -72 -8 -87 1 -5 3 -15 2 -22 -2 -12 -8 -83 -5 -108 4 -7 2 -13 1 -13 -3 0
-8 -77 -8 -86 0 -3 3 -19 2 -35 -2 -17 -5 -40 -5 -52 -1 -12 5 -31 5 -42 1
-11 -4 -24 -5 -28 -3 -12 7 -273 7 -285 -1 -6 -3 -13 -2 -16 2 -3 5 -22 6 -43
3 -21 -4 -54 -4 -73 -1 -19 3 -46 3 -60 0 -14 -4 -35 -3 -47 1 -14 5 -23 5
-23 -2 0 -6 -6 -6 -19 0 -10 6 -21 8 -24 4z"/>
</g>
</svg>
